<?xml version="1.0" standalone="no"?>
<!DOCTYPE svg PUBLIC "-//W3C//DTD SVG 20010904//EN"
 "http://www.w3.org/TR/2001/REC-SVG-20010904/DTD/svg10.dtd">
<svg version="1.0" xmlns="http://www.w3.org/2000/svg"
 width="256.000000pt" height="256.000000pt" viewBox="0 0 256.000000 256.000000"
 preserveAspectRatio="xMidYMid meet">
<metadata>
Created by potrace 1.11, written by Peter Selinger 2001-2013
</metadata>
<g transform="translate(0.000000,256.000000) scale(0.100000,-0.100000)"
fill="#000000" stroke="none">
<path d="M1075 2545 c-285 -52 -505 -165 -700 -361 -188 -189 -314 -430 -359
-689 -14 -79 -15 -370 -2 -425 3 -14 8 -35 10 -48 72 -355 317 -688 640 -866
51 -28 206 -95 235 -101 9 -2 43 -11 76 -19 95 -25 181 -34 311 -34 141 1 202
9 333 43 347 90 658 349 815 680 43 90 79 186 92 246 34 155 41 382 17 524
-90 531 -518 959 -1048 1049 -102 17 -329 18 -420 1z m370 -278 c11 -3 34 -8
50 -12 42 -10 185 -56 185 -60 0 -2 -26 -9 -57 -15 -74 -15 -184 -66 -246
-113 -26 -21 -49 -37 -52 -37 -3 0 -26 15 -52 34 -68 47 -178 95 -258 111 -22
5 -43 9 -47 10 -5 2 -25 3 -45 4 -34 1 -36 2 -18 14 28 18 127 47 210 62 65
11 284 12 330 2z m-522 -357 c65 -14 144 -52 216 -105 l59 -43 0 -69 c0 -92 8
-127 42 -201 35 -75 104 -145 186 -189 32 -17 140 -64 239 -103 258 -103 311
-135 341 -207 14 -33 19 -102 10 -140 -44 -194 -344 -226 -586 -62 l-45 31 0
131 c0 157 -12 191 -103 286 -82 85 -145 121 -352 207 -102 42 -204 84 -226
95 -179 81 -194 284 -26 355 73 31 145 35 245 14z m1006 -11 c66 -21 154 -73
200 -119 78 -76 140 -275 146 -464 l4 -109 -42 43 c-67 69 -159 122 -352 200
-99 40 -201 83 -227 96 -104 53 -150 137 -126 231 31 123 217 180 397 122z
m-1588 -503 c63 -69 120 -100 350 -192 291 -116 335 -145 359 -234 25 -94 -12
-195 -89 -242 -136 -84 -358 -45 -538 96 -47 36 -56 49 -83 125 -40 110 -57
213 -55 336 3 131 4 155 10 155 2 0 23 -20 46 -44z m1049 -913 c99 -47 198
-73 292 -76 36 -1 64 -5 62 -9 -8 -13 -156 -69 -237 -90 -119 -31 -338 -30
-457 1 -96 26 -209 68 -228 85 -10 10 -3 13 33 15 111 5 265 61 346 126 l43
34 31 -23 c16 -13 68 -41 115 -63z"/>
</g>
</svg>
