<?xml version="1.0" standalone="no"?>
<!DOCTYPE svg PUBLIC "-//W3C//DTD SVG 20010904//EN"
 "http://www.w3.org/TR/2001/REC-SVG-20010904/DTD/svg10.dtd">
<svg version="1.0" xmlns="http://www.w3.org/2000/svg"
 width="700.000000pt" height="700.000000pt" viewBox="0 0 700.000000 700.000000"
 preserveAspectRatio="xMidYMid meet">
<metadata>
Created by potrace 1.11, written by Peter Selinger 2001-2013
</metadata>
<g transform="translate(0.000000,700.000000) scale(0.100000,-0.100000)"
fill="#000000" stroke="none">
<path d="M3645 6191 c-10 -1 -14 -6 -9 -10 5 -3 42 -44 83 -91 41 -47 79 -89
85 -95 6 -5 26 -28 45 -50 40 -47 203 -230 352 -395 42 -47 89 -101 105 -120
16 -19 36 -42 44 -50 25 -28 82 -91 165 -185 44 -49 84 -95 90 -101 5 -6 39
-44 75 -84 36 -41 72 -81 80 -90 8 -9 30 -34 49 -55 19 -22 55 -63 80 -91 25
-27 73 -81 106 -119 33 -38 76 -85 95 -106 19 -21 58 -64 85 -96 49 -57 219
-248 239 -269 13 -13 47 -52 136 -154 186 -212 223 -243 301 -249 85 -6 177
49 215 126 17 36 18 93 19 1161 0 748 -3 1122 -10 1123 -47 2 -2416 3 -2430 0z"/>
<path d="M2488 6185 c-2 -2 -34 -5 -73 -9 -124 -11 -158 -16 -265 -37 -275
-54 -505 -148 -690 -282 -86 -63 -230 -214 -291 -307 -156 -237 -240 -531
-251 -880 -1 -37 13 -62 79 -137 43 -49 80 -90 83 -93 3 -3 39 -43 80 -90 41
-47 80 -90 85 -96 6 -6 35 -39 65 -74 30 -34 66 -74 80 -89 14 -15 54 -60 90
-101 36 -40 70 -78 75 -84 6 -6 39 -44 75 -85 36 -41 74 -84 85 -95 17 -18
106 -119 165 -186 25 -28 133 -151 155 -174 11 -12 49 -55 85 -96 36 -41 74
-84 85 -96 11 -12 47 -52 80 -90 33 -37 65 -72 70 -78 6 -7 44 -50 85 -96 41
-47 79 -90 85 -96 5 -6 37 -41 70 -78 33 -38 69 -78 80 -90 11 -12 49 -56 85
-96 124 -142 234 -265 285 -320 27 -30 77 -86 110 -124 33 -37 69 -78 80 -90
11 -12 49 -56 85 -96 36 -41 85 -97 110 -125 25 -27 50 -54 55 -61 6 -6 39
-44 75 -85 36 -40 79 -88 95 -105 17 -18 49 -54 72 -81 47 -55 62 -72 153
-173 36 -40 72 -81 80 -90 8 -9 44 -49 79 -89 35 -39 76 -86 92 -104 16 -17
62 -69 102 -115 l72 -84 130 6 c72 3 148 8 170 11 22 3 60 7 84 10 887 112
1358 615 1392 1485 2 59 0 64 -39 105 -21 22 -69 76 -107 120 -39 44 -75 84
-81 90 -6 5 -60 66 -120 135 -60 69 -129 147 -154 174 -25 27 -49 54 -55 60
-54 61 -161 182 -165 186 -3 3 -54 61 -115 130 -60 69 -112 127 -115 130 -6 6
-138 154 -320 360 -51 58 -123 139 -160 180 -95 107 -311 349 -346 389 -16 18
-40 46 -54 61 -14 15 -38 43 -55 61 -24 28 -151 171 -200 225 -5 6 -37 42 -71
80 -255 288 -895 1009 -933 1050 -25 28 -102 115 -171 193 l-125 142 -102 -2
c-57 -1 -104 -3 -105 -4z"/>
<path d="M1056 3206 c-47 -18 -99 -67 -123 -115 -16 -34 -17 -112 -18 -1158
l0 -1123 35 0 c35 0 1411 0 2073 0 l349 0 -79 87 c-43 48 -91 103 -108 122
-16 18 -41 46 -55 61 -14 15 -52 58 -86 96 -33 38 -211 238 -394 444 -183 206
-347 391 -364 410 -83 94 -191 216 -196 220 -3 3 -39 43 -81 90 -70 79 -101
114 -146 166 -19 22 -140 158 -209 234 -38 42 -60 67 -114 130 -12 14 -40 45
-63 70 -23 25 -76 84 -117 130 -41 47 -82 91 -90 98 -55 46 -148 62 -214 38z"/>
</g>
</svg>
