<?xml version="1.0" encoding="utf-8"?>
<svg version="1.1" id="dribbble" xmlns="http://www.w3.org/2000/svg" xmlns:xlink="http://www.w3.org/1999/xlink" x="0px" y="0px"
	 viewBox="0 0 20 20" style="enable-background:new 0 0 20 20;" xml:space="preserve">
<style type="text/css">
	.icon{fill:#543236;}
</style>
<path class="icon" d="M10,0.5c-4.51,0-8.27,3.13-9.24,7.34c-0.01,0-0.01,0-0.02,0L0.73,7.93C0.58,8.6,0.5,9.29,0.5,10
	c0,5.25,4.25,9.5,9.5,9.5s9.5-4.25,9.5-9.5S15.25,0.5,10,0.5z M17.48,9.51c-1.73-0.29-3.4-0.29-4.98-0.01c-0.2-0.5-0.41-1-0.63-1.49
	c1.48-0.72,2.81-1.64,3.95-2.74C16.77,6.44,17.37,7.91,17.48,9.51z M14.34,3.89c-0.98,0.93-2.1,1.72-3.36,2.33
	c-0.66-1.24-1.4-2.45-2.24-3.62C9.16,2.54,9.57,2.5,10,2.5C11.62,2.5,13.12,3.02,14.34,3.89z M6.73,3.26
	c0.9,1.21,1.69,2.45,2.39,3.74C7.23,7.62,5.1,7.94,2.8,7.93C3.39,5.87,4.84,4.18,6.73,3.26z M2.5,10c0-0.03,0-0.05,0-0.08
	c0.13,0,0.27,0.01,0.4,0.01c2.59,0,4.97-0.41,7.11-1.15c0.19,0.41,0.37,0.82,0.54,1.24c-2.45,0.84-4.63,2.41-6.4,4.66
	C3.12,13.39,2.5,11.77,2.5,10z M5.59,16.06c1.19-1.54,3.03-3.28,5.63-4.17c0.54,1.66,0.92,3.4,1.18,5.21
	c-0.75,0.26-1.56,0.4-2.4,0.4C8.35,17.5,6.83,16.96,5.59,16.06z M14.29,16.15c-0.26-1.64-0.63-3.21-1.11-4.73
	c1.25-0.19,2.63-0.19,4.18,0.09C16.96,13.42,15.83,15.07,14.29,16.15z"/>
</svg>
