<?xml version="1.0" encoding="utf-8"?>
<svg version="1.1" id="instagram" xmlns="http://www.w3.org/2000/svg" xmlns:xlink="http://www.w3.org/1999/xlink" x="0px" y="0px"
	 viewBox="0 0 20 20" style="enable-background:new 0 0 20 20;" xml:space="preserve">
<style type="text/css">
	.icon{fill:#543236;}
</style>
<g class="icon" >
	<path d="M18.95,6.29c-0.04-0.96-0.2-1.61-0.42-2.18c-0.23-0.59-0.54-1.09-1.04-1.59c-0.5-0.5-1-0.81-1.59-1.04
		c-0.57-0.22-1.23-0.37-2.18-0.42C12.75,1.01,12.44,1,10,1S7.25,1.01,6.29,1.05C5.33,1.1,4.68,1.25,4.1,1.47
		C3.51,1.7,3.01,2.01,2.51,2.51c-0.5,0.5-0.81,1-1.04,1.59C1.25,4.68,1.1,5.33,1.05,6.29C1.01,7.25,1,7.56,1,10
		c0,2.44,0.01,2.75,0.05,3.71c0.04,0.96,0.2,1.61,0.42,2.18c0.23,0.59,0.54,1.09,1.04,1.59c0.5,0.5,1,0.81,1.59,1.04
		c0.57,0.22,1.23,0.37,2.18,0.42C7.25,18.99,7.56,19,10,19s2.75-0.01,3.71-0.05c0.96-0.04,1.61-0.2,2.18-0.42
		c0.59-0.23,1.09-0.54,1.59-1.04c0.5-0.5,0.81-1,1.04-1.59c0.22-0.57,0.37-1.23,0.42-2.18C18.99,12.75,19,12.44,19,10
		C19,7.56,18.99,7.25,18.95,6.29z M16.95,13.62c-0.04,0.82-0.16,1.24-0.28,1.55c-0.14,0.37-0.31,0.63-0.59,0.9
		c-0.28,0.28-0.53,0.44-0.9,0.59c-0.31,0.12-0.73,0.25-1.55,0.28C12.68,16.99,12.4,17,10,17s-2.68-0.01-3.62-0.05
		c-0.82-0.04-1.24-0.16-1.55-0.28c-0.37-0.15-0.63-0.31-0.9-0.59c-0.28-0.28-0.44-0.53-0.59-0.9c-0.12-0.31-0.25-0.73-0.28-1.55
		C3.01,12.68,3,12.4,3,10c0-2.4,0.01-2.68,0.05-3.62c0.04-0.82,0.16-1.24,0.28-1.55c0.14-0.37,0.31-0.63,0.59-0.9
		c0.28-0.28,0.53-0.44,0.9-0.59c0.31-0.12,0.73-0.25,1.55-0.28C7.32,3.01,7.6,3,10,3s2.68,0.01,3.62,0.05
		c0.82,0.04,1.24,0.17,1.55,0.28c0.37,0.14,0.62,0.31,0.9,0.59c0.28,0.28,0.44,0.53,0.59,0.9c0.12,0.31,0.25,0.73,0.28,1.55
		C16.99,7.32,17,7.6,17,10C17,12.4,16.99,12.68,16.95,13.62z"/>
	<circle cx="14.5" cy="5.5" r="1"/>
	<path d="M10,5.5c-2.49,0-4.5,2.01-4.5,4.5c0,2.49,2.01,4.5,4.5,4.5c2.49,0,4.5-2.01,4.5-4.5C14.5,7.51,12.49,5.5,10,5.5z M10,12.5
		c-1.38,0-2.5-1.12-2.5-2.5S8.62,7.5,10,7.5s2.5,1.12,2.5,2.5S11.38,12.5,10,12.5z"/>
</g>
</svg>
