<?xml version="1.0" encoding="utf-8"?>
<svg version="1.1" id="twitter" xmlns="http://www.w3.org/2000/svg" xmlns:xlink="http://www.w3.org/1999/xlink" x="0px" y="0px"
	 viewBox="0 0 20 20" style="enable-background:new 0 0 20 20;" xml:space="preserve">
<style type="text/css">
	.icon{fill:#543236;}
</style>
<path class="icon" d="M6.4,17.87c7.31,0,11.31-6.06,11.31-11.31c0-0.17,0-0.34-0.01-0.51c0.78-0.56,1.45-1.26,1.98-2.06
	c-0.71,0.32-1.48,0.53-2.29,0.63c0.82-0.49,1.45-1.27,1.75-2.2c-0.77,0.46-1.62,0.78-2.53,0.96c-0.73-0.78-1.76-1.26-2.9-1.26
	c-2.19,0-3.98,1.78-3.98,3.98c0,0.31,0.04,0.61,0.1,0.91c-3.3-0.16-6.23-1.75-8.19-4.15c-0.34,0.59-0.53,1.27-0.53,2
	c0,1.38,0.71,2.6,1.77,3.31c-0.65-0.02-1.26-0.2-1.8-0.5c0,0.02,0,0.03,0,0.05c0,1.92,1.37,3.53,3.19,3.9
	c-0.33,0.09-0.68,0.14-1.05,0.14c-0.26,0-0.5-0.02-0.74-0.07c0.5,1.58,1.98,2.73,3.71,2.76c-1.36,1.07-3.08,1.7-4.94,1.7
	c-0.32,0-0.64-0.02-0.95-0.05C2.07,17.22,4.16,17.87,6.4,17.87"/>
</svg>
