<?xml version="1.0" encoding="utf-8"?>
<!-- Generator: Adobe Illustrator 25.4.1, SVG Export Plug-In . SVG Version: 6.00 Build 0)  -->
<svg version="1.1" id="Layer_1" xmlns:serif="http://www.serif.com/"
	 xmlns="http://www.w3.org/2000/svg" xmlns:xlink="http://www.w3.org/1999/xlink" x="0px" y="0px" viewBox="0 0 800 800"
	 style="enable-background:new 0 0 800 800;" xml:space="preserve">
<style type="text/css">
	.st0{opacity:8.000000e-02;fill:#FFFFFF;}
</style>
<path class="st0" d="M549,44.9c0.1-15,0.3-29.9,0.3-44.9h2.8c-0.1,14.9-0.2,29.8-0.3,44.7c29.1-1.1,58.3-2,87.3-1.1
	c2.2,0.1,4.4,0.1,6.6,0.2c-0.2-14.6-0.3-29.2-0.3-43.8h2.8c0.1,14.6,0.2,29.3,0.4,43.9c30.5,1.3,61,4.5,91.4,7.3
	c1.3,0.1,2.6,0.2,3.9,0.4c0.6-17.2,1-34.4,1.3-51.6h2.8c-0.2,17.3-0.7,34.6-1.3,51.8c17.8,1.5,35.5,2.7,53.3,2.7v2.9l-4.3,0
	c-16.4,0-32.8-1.2-49.2-2.7c-1,31.5-2.4,63.1-3.4,94.6c19,0.5,37.9,0.5,56.9,0.7v2.7c-19-0.2-38-0.4-56.9-0.8
	c-0.3,9-0.5,18.1-0.8,27.1c-0.5,21.6-0.7,43.2-0.5,64.8c3.5,0.1,7,0.2,10.4,0.4c15.9,0.6,31.9,1.6,47.8,2.1v2.9
	c-19.3-0.6-38.6-1.9-57.9-2.6l-0.2,0c0.1,8.1,0.3,16.3,0.5,24.4c0.7,23.3,2.1,46.6,3.5,69.9c6.6,0,13.1,0.1,19.7,0.4
	c11.5,0.5,23,1.4,34.5,1.5v2.7c-3.3,0-6.7-0.1-10-0.2c-14.7-0.5-29.3-1.5-43.9-1.5c0.4,6.2,0.7,12.3,1.1,18.5
	c1.4,25.1,2.5,50.3,3.2,75.5c9.1-0.5,18.2-0.7,27.3-0.2c7.5,0.5,14.9,1.1,22.4,1.2v2.6c0,0-29.8-2-44.7-1.1
	c-1.6,0.1-3.3,0.2-4.9,0.3c0.9,35.3,1.2,70.6,1,105.9c0,1.3,0,2.6,0,3.8c16.2,0.2,32.4,0.3,48.7,0.3v2.8c-16.2,0-32.4-0.1-48.7-0.4
	c-0.2,31.1-0.7,62.2-1.3,93.3c6.8,0.5,13.6,0.9,20.4,0.8c8.7-0.1,29.6-1,29.6-1v2.8c-2.4,0-34.3,1.3-50,0.1
	c-0.5,26.9-1,53.8-1.3,80.8c-0.1,4.5-0.1,8.9-0.2,13.4c17.2-0.3,34.4-0.4,51.5-0.5v2.8c-17.2,0.1-34.4,0.3-51.6,0.6
	c-0.2,18-0.5,36-0.5,54h-2.8c0.1-18,0.2-36,0.5-54c-8.8,0.1-17.5,0.3-26.3,0.4c-23.3,0.4-46.7,0.7-70,0.9
	c-0.5,17.5-0.9,35.1-1.1,52.7h-2.8c0.1-17.5,0.5-35.1,1-52.6c-31.4,0.3-62.9,0.6-94.3,0.9c0,17.2,0,34.5,0,51.7h-2.8
	c0-17.2,0-34.5,0-51.7c-6.5,0.1-13,0.1-19.5,0.1c-24.3,0.2-48.7,0.2-73-0.2c-0.1,2.4-0.3,4.8-0.4,7.2c-0.6,14.8-0.2,29.7-0.1,44.6
	h-2.8c0-17.3-0.1-34.6,0.6-51.8c-31.7-0.5-63.4-1.6-95-3.7c-0.3,7.5-0.4,15-0.2,22.6c0.3,11,1,21.9,1.1,32.9h-2.8
	c0-3.1,0-6.2-0.1-9.3c-0.5-15.5-1.3-30.9-0.7-46.4c-5.3-0.4-10.6-0.7-16-1.2c-31.1-2.4-62.1-4.9-93.2-5.5
	c0.4,18.9,0.9,37.9,0.9,56.8l0,5.5h-2.9c-0.2-20.8-0.5-41.6-0.9-62.3c-30.7-0.5-61.4,0.2-92.1,1.3c-0.1,20.4-0.1,40.7-0.1,61.1h-2.8
	c0-20.3,0-40.6,0.2-61c-31.3,1.2-62.7,2.9-94,4.4c-0.1,3.3-0.1,6.7-0.2,10c-0.2,11.8,0.9,23.6,0.9,35.4l0,11.1h-2.6
	c0-7.1,0-14.3-0.3-21.4c-0.5-11.7-0.6-23.4-0.5-35c-17.5,0.8-35.1,1.5-52.6,1.9v-2.8c17.5-0.4,35.1-1.1,52.6-1.8
	c0.2-20.4,1-40.8,1.5-61.2c0.3-10.9,0.5-21.8,0.7-32.7c-18.3,0.6-36.6,1.4-54.8,2v-2.8c18.3-0.5,36.6-1.4,54.9-2
	c0.4-21.4,0.7-42.7,0.5-64.1c0-9.2-0.2-18.4-0.3-27.6c-18.4,0.4-36.7,0.7-55.1,0.9v-2.8c18.4-0.2,36.7-0.5,55.1-0.9
	c-0.4-23.1-1.1-46.2-1.5-69.3c-0.3-13-0.5-25.9-0.6-38.9c-17.6,0.2-35.3,0-52.9-0.1v-2.6c17.6,0.1,35.3,0.2,52.9-0.1
	c-0.3-32.1-0.2-64.3,0.3-96.4c-14.1,1.7-28.2,3.2-42.4,3.2l-10.8,0v-2.7c7.2,0,14.5,0,21.7-0.3c10.6-0.5,21.1-1.8,31.6-3.1
	c0.4-19.1,0.9-38.1,1.6-57.2c0.4-11.6,0.9-23.3,1.3-34.9c-18.7,0.8-37.5,1.6-56.2,2v-2.9c18.8-0.4,37.6-1.3,56.3-2.1
	c0.8-20.6,1.5-41.1,1.9-61.7c0.2-8.7,0.2-17.4,0.2-26.1c-14.2,0.1-28.1-0.8-42.2-2.7c-5.4-0.7-10.9-0.9-16.3-0.9V150
	c13,0.2,25.7,2.5,38.8,3.2c6.6,0.3,13.1,0.4,19.7,0.4c-0.2-23.1-1.1-46.3-2.2-69.4c-0.4-8.9-0.9-17.8-1.3-26.6
	c-18.3,0-36.6,0-54.9,0v-2.9c18.3,0,36.5,0,54.8,0.1C54,36.4,53.5,18.2,53.4,0h2.6c0,3.1,0,6.1,0.1,9.2c0.2,15.1,0.7,30.3,1.4,45.4
	c23.5,0,47,0.1,70.5,0.1c7.7,0,15.5,0,23.2,0c-1-16.7-2-33.5-2-50.3l0-4.4h2.8c0,5.2,0,10.3,0.1,15.5c0.3,13.1,1.1,26.1,1.9,39.2
	c30.4,0,60.8-0.1,91.2-0.4c0-29.2-0.1-54.3-0.1-54.3h2.9c0,0,0,24.5,0,54.3c28.5-0.3,57.1-0.6,85.6-1.3c7.8-0.2,15.5-0.4,23.3-0.6
	c0.2-17.5,0.3-35,0.3-52.5h2.8c-0.1,17.5-0.2,34.9-0.4,52.4c31.8-0.9,63.6-2.2,95.3-3.5c-0.7-16.3-1.2-32.6-1.5-48.8h2.8
	c0.3,16.2,0.8,32.5,1.5,48.7c26.4-1.1,52.7-2.3,79.1-3.4C540.9,45.2,545,45,549,44.9z M548.9,642.7c-9.6,0.1-19.3,0.1-28.9,0.2
	l-55,0.4c-0.4,7.1-0.8,14.2-1.3,21.3c-1.9,27-5.1,53.9-6.7,80.9c30.8,0.4,61.5,0.2,92.3-0.1c0-12.6,0-25.2-0.1-37.7
	C549.1,686.1,549,664.4,548.9,642.7z M462.1,643.4l-98.8,0.8c-0.9,24.8-1.9,49.5-3,74.3c-0.3,7.8-0.8,15.6-1.1,23.4
	c1.4,0.1,2.8,0.2,4.2,0.3c30.2,2,60.5,3,90.8,3.4c0.2-4.3,0.5-8.6,0.8-12.9C457.3,702.8,460.7,673.2,462.1,643.4z M650.5,643.2
	c-32.9-0.8-65.9-0.8-98.8-0.5c0.2,29.1,0.3,58.3,0.4,87.4c0,5.1,0,10.2,0,15.3l0.9,0c31.2-0.3,62.3-0.6,93.5-0.9
	C647.5,710.8,649.1,677,650.5,643.2z M653.3,643.3c-0.2,3.9-0.3,7.8-0.5,11.7c-1.3,29.9-2.5,59.7-3.4,89.5
	c31.3-0.3,62.6-0.7,93.9-1.3l2.3,0c0.2-11.9,0.4-23.8,0.5-35.7c0.3-19.6,0.7-39.2,1-58.8c-14.5-1.4-29.1-2.5-43.7-3.4
	C686.8,644.4,670,643.8,653.3,643.3z M335.3,644.4l-89,0.7c0,21.5,0.2,43.1,0.4,64.7c0.1,8.4,0.3,16.8,0.5,25.1
	c7.6,0.1,15.1,0.4,22.6,0.7c29,1.2,57.8,4,86.8,6c0.7-15.9,1.4-31.8,2.1-47.8c0.7-16.5,1.3-33.1,1.9-49.6L335.3,644.4z M150.7,645.8
	c-30.9,0.2-61.8,0.1-92.6,1l-0.5,0c-0.4,18.9-0.9,37.9-1.3,56.8c-0.3,12.3-0.6,24.7-0.8,37c31.3-1.4,62.7-3.2,94-4.4
	c0.1-17.1,0.3-34.2,0.5-51.3C150.2,671.9,150.5,658.9,150.7,645.8z M243.5,645.1l-89.9,0.7c-0.4,21.3-0.8,42.6-1,64
	c-0.1,8.8-0.2,17.6-0.2,26.4c7.6-0.3,15.1-0.5,22.7-0.7c23.1-0.6,46.2-1,69.3-0.6c-0.3-16.6-0.5-33.3-0.6-49.9
	C243.5,671.6,243.5,658.4,243.5,645.1z M655.9,549.9c-0.5,30.2-1.3,60.4-2.5,90.6c24,0.6,48,1.7,72,3.6c7.3,0.6,14.6,1.3,21.8,1.9
	c0.5-31,1.1-62.1,1.3-93.1c-7.5-0.2-15.1-0.4-22.6-0.6C702.6,551.4,679.2,550.6,655.9,549.9z M152.9,549.7c-31.7,1-63.3,2-95,2.7
	c0.3,17.5,0.5,35,0.4,52.6c-0.1,13-0.3,26.1-0.5,39.1c7.8-0.2,15.5-0.4,23.3-0.5c23.3-0.2,46.5-0.4,69.8-0.6
	C151.4,611.9,152.2,580.8,152.9,549.7z M243.8,547.2c-28.8,0.7-57.5,1.5-86.3,2.4l-1.9,0.1c-0.7,31.1-1.5,62.3-2.1,93.4
	c6.6,0,13.1-0.1,19.7-0.1l70.2-0.5C243.4,610.6,243.6,578.9,243.8,547.2z M363.1,545.7c-5.5,0-11,0-16.5,0
	c-33.3,0.1-66.7,0.6-100,1.3c-0.2,31.7-0.4,63.5-0.4,95.2l112.2-0.9l2.1,0C361.7,609.5,362.6,577.6,363.1,545.7z M365.9,545.7
	c-0.5,31.9-1.4,63.8-2.5,95.6c32.9-0.3,65.9-0.5,98.8-0.8c1.3-31.1,2.4-62.3,3.2-93.4l0-1C432.2,545.9,399.1,545.7,365.9,545.7z
	 M468.2,546.2c-0.2,8-0.4,16-0.7,24c-0.7,23.4-1.3,46.9-2.4,70.4c26-0.2,52-0.4,77.9-0.6c1.9,0,3.9,0,5.8,0
	c-0.2-30.9-0.5-61.7-1-92.6c-3.7-0.1-7.4-0.1-11.1-0.2C513.9,546.8,491,546.5,468.2,546.2z M550.7,547.4c0.4,30.8,0.8,61.7,1,92.5
	c33-0.2,66-0.3,99,0.5c0.1-2.9,0.2-5.7,0.4-8.5c1.1-27.3,1.8-54.7,2.3-82C619,548.9,584.9,548.1,550.7,547.4z M747.5,440.7
	c-12.6,0.7-25.2,1.5-37.7,2.2c-17.6,1-35.3,1.7-52.9,2.2c0,8.6,0,17.1-0.1,25.7c-0.1,25.5-0.3,50.9-0.8,76.4
	c30.9,0.9,61.7,2.5,92.6,3c0.1-9,0.1-18,0.1-27C748.7,495.7,748.3,468.2,747.5,440.7z M155,438.6c-30.1,0.4-60.1,2-90.2,2.7
	c-3,0.1-6,0.1-9.1,0.2c0.3,21.3,0.7,42.5,1.1,63.8c0.3,14.8,0.7,29.6,0.9,44.3c31.7-0.7,63.4-1.7,95.1-2.7
	c0.5-20.2,0.9-40.3,1.3-60.5C154.5,470.4,154.8,454.5,155,438.6z M654,445.2c-35.2,1-70.4,1.3-105.6,1c0.9,32.8,1.7,65.6,2.2,98.5
	c3.1,0.1,6.2,0.1,9.3,0.2c31.1,0.6,62.2,1.4,93.3,2.3c0.5-32.9,0.7-65.8,0.7-98.7L654,445.2z M244.6,438.8
	c-29-0.4-57.9-0.5-86.9-0.2c-0.3,24.2-0.7,48.4-1.2,72.6c-0.3,11.9-0.5,23.7-0.8,35.6c8.3-0.3,16.7-0.5,25-0.8
	c21-0.6,42.1-1.2,63.1-1.6c0.1-19.2,0.3-38.4,0.5-57.6C244.4,470.8,244.5,454.8,244.6,438.8z M469.8,444.8
	c-0.2,32.9-0.7,65.8-1.5,98.7c26.5,0.3,53,0.6,79.6,1.1c-0.1-7-0.2-14.1-0.3-21.1c-0.4-25.8-1.2-51.6-1.9-77.3
	c-6.9-0.1-13.8-0.1-20.7-0.2C506.5,445.6,488.1,445.2,469.8,444.8z M247.3,438.8c-0.1,24.3-0.2,48.6-0.4,72.9
	c-0.1,10.9-0.2,21.8-0.3,32.6c38.8-0.8,77.6-1.3,116.5-1.4c0.2-15.6,0.4-31.2,0.4-46.7c0-18.2-0.1-36.4-0.4-54.5
	c-7.7-0.2-15.4-0.5-23-0.7C309.2,440.1,278.3,439.3,247.3,438.8z M365.9,441.7c0.4,26.2,0.5,52.3,0.3,78.5
	c-0.1,7.6-0.2,15.2-0.3,22.7c1.3,0,2.6,0,3.9,0c31.9,0,63.8,0.2,95.6,0.5c0.8-32.9,1.3-65.8,1.5-98.7
	C433.3,443.9,399.6,442.8,365.9,441.7z M653.7,344.4c-35.9,0.2-71.7,0.3-107.6,0.2c0.1,5.9,0.2,11.8,0.3,17.6
	c0.6,27.1,1.3,54.1,2,81.2c35.3,0.3,70.5-0.1,105.7-1.1C654.1,409.6,653.9,377,653.7,344.4z M469.4,344c0.2,11.7,0.3,23.4,0.3,35.1
	c0.1,21,0.2,41.9,0,62.9c25.2,0.6,50.5,1.1,75.7,1.4c-0.9-32.9-1.9-65.9-2.3-98.8c-17-0.1-34.1-0.2-51.2-0.3
	C484.5,344.2,476.9,344.1,469.4,344z M743.2,343.7c-0.3,0-0.7,0-1,0c-16.9,0.1-33.8,0.3-50.7,0.4c-11.7,0.1-23.4,0.2-35,0.2
	c0.3,32.6,0.4,65.2,0.4,97.8c25.1-0.8,50.2-1.9,75.3-3.4c5.1-0.3,10.2-0.6,15.3-0.9C746.5,406.5,745.1,375.1,743.2,343.7z
	 M363.5,341.7c1,32.4,1.9,64.8,2.4,97.2c33.7,1,67.4,2.1,101.1,3c0.1-28.7,0.1-57.3-0.3-86c0-4-0.1-8-0.1-12
	C432.2,343.5,397.9,342.7,363.5,341.7z M247.6,337.7c0,32.8-0.1,65.5-0.2,98.3c38.6,0.6,77.2,1.7,115.8,2.9
	c-0.5-32.4-1.4-64.8-2.4-97.2c-22.9-0.7-45.9-1.5-68.8-2.3C277.2,338.7,262.4,338.2,247.6,337.7z M155.6,336.2
	c-20.5,0.2-41,0.7-61.5,1.8c-12.8,0.7-25.5,2.3-38.2,3.8c-0.6,32.2-0.6,64.4-0.2,96.7c10.6-0.2,21.3-0.5,31.9-0.9
	c22.4-1,44.9-1.6,67.4-1.9C155.4,402.6,155.6,369.4,155.6,336.2z M244.8,337.6c-28.8-0.9-57.6-1.5-86.4-1.4
	c0,33.2-0.2,66.4-0.6,99.5c7.1-0.1,14.2-0.1,21.3-0.2c21.8-0.1,43.7,0,65.5,0.4C244.7,403.2,244.8,370.4,244.8,337.6z M547.3,244.6
	c-0.9,32.4-1.6,64.8-1.3,97.2c35.9,0.1,71.7,0,107.6-0.2c-0.2-25.8-0.6-51.6-1-77.3c-0.1-6.3-0.2-12.6-0.4-18.9c-1.5,0-2.9,0-4.4,0
	C614.4,245.1,580.8,244.8,547.3,244.6z M467.1,244c1,32.4,1.8,64.8,2.2,97.2c15.9,0.2,31.8,0.4,47.6,0.4c8.7,0.1,17.5,0.1,26.2,0.1
	l0-1.7c-0.4-31.8,0.3-63.7,1.2-95.5C518.6,244.4,492.9,244.2,467.1,244z M654.9,245.3c0.4,13.7,0.6,27.5,0.8,41.3
	c0.3,18.3,0.5,36.6,0.6,55c20-0.1,40-0.3,60-0.4c8.9-0.1,17.8-0.3,26.7-0.3l-0.1-1.7c-1.8-30.4-3.5-60.8-4-91.3c0-0.5,0-1,0-1.4
	C711,245.5,683,245.5,654.9,245.3z M360.4,243.5c0.7,25.9,1.6,51.8,2.4,77.7c0.2,5.9,0.4,11.9,0.6,17.8c34.4,1,68.7,1.7,103.1,2.2
	c-0.4-32.4-1.2-64.8-2.2-97.2C429.7,243.8,395,243.6,360.4,243.5z M247.8,243.2c0,23.4-0.1,46.8-0.1,70.3l0,21.5
	c23.1,0.7,46.1,1.7,69.2,2.5c14.6,0.5,29.2,1,43.8,1.5c-0.4-13.9-0.9-27.9-1.4-41.8c-0.6-17.9-1.1-35.8-1.6-53.6
	c-15.5,0-31-0.1-46.6-0.1C290,243.3,268.9,243.2,247.8,243.2z M155.3,243.6c-4.1,0.1-8.2,0.1-12.3,0.2c-28,0.6-56,1.9-83.9,3.2
	c-0.8,20-1.6,39.9-2.3,59.9c-0.4,10.7-0.6,21.3-0.8,32c4.4-0.6,8.9-1.1,13.3-1.6c16.4-1.8,32.9-2.5,49.4-3.1
	c12.3-0.4,24.6-0.7,37-0.7c0-15.5,0-31.1-0.1-46.6C155.4,272.4,155.4,258,155.3,243.6z M245,243.2c-29-0.1-58-0.1-86.9,0.4
	c0.2,22.7,0.3,45.4,0.3,68.1c0,7.3,0,14.5,0,21.8c28.8-0.2,57.6,0.5,86.5,1.4c0-15.4,0-30.9,0.1-46.3
	C244.9,273.4,244.9,258.3,245,243.2z M154.4,152.9l-0.7,0c-30.7,0.9-61.4,2.8-92.1,3.3l-0.4,0c0,29.2-0.9,58.5-2,87.7
	c3.4-0.2,6.8-0.3,10.2-0.5c28.6-1.3,57.2-2.2,85.9-2.7C155.1,211.5,154.8,182.2,154.4,152.9z M651.7,149c1.2,31.2,2.3,62.4,3.1,93.6
	c4.5,0,9.1,0.1,13.6,0.1c23.5,0.2,47,0.3,70.5,1c-0.3-28.9,0.2-57.9,1.1-86.8c0.1-1.7,0.1-3.4,0.2-5.1c-11.4-0.3-22.8-0.6-34.3-1
	C687.9,150.1,669.8,149.3,651.7,149z M649,148.9c-11.7-0.2-23.5-0.1-35.2,0.2c-21.3,0.7-42.6,2.5-63.9,3.9
	c-0.2,8.8-0.4,17.6-0.7,26.3c-0.6,20.8-1.3,41.6-1.8,62.4c34.9,0.3,69.9,0.5,104.8,0.8C651.4,211.3,650.2,180.1,649,148.9z
	 M547.1,153.2c-8,0.5-16.1,0.9-24.2,1.1c-19.9,0.5-39.8,0.1-59.6-0.6c0.6,11.6,1.2,23.1,1.7,34.7c0.8,17.6,1.4,35.2,2,52.8
	c11,0.1,22.1,0.1,33.1,0.2c14.8,0.1,29.5,0.2,44.3,0.3c0.8-28.2,1.9-56.4,2.6-84.6L547.1,153.2z M358.8,150.6c0.1,30,0.7,60,1.5,90
	c34.6,0.1,69.3,0.3,103.9,0.5c-0.8-25.6-1.9-51.1-3.2-76.7c-0.2-3.6-0.4-7.3-0.6-10.9c-10.1-0.4-20.1-0.8-30.1-1.2
	C406.5,151.5,382.7,151,358.8,150.6z M245.1,150.8c-29.4,0.5-58.8,1.2-88.2,2c0.5,29.3,0.8,58.6,1,87.9c1.8,0,3.7-0.1,5.5-0.1
	c27.1-0.4,54.3-0.4,81.4-0.4C245,210.5,245.1,180.6,245.1,150.8z M356.2,150.6c-5.9-0.1-11.9-0.1-17.8-0.2
	c-30.2-0.2-60.3-0.1-90.4,0.4c-0.1,29.8-0.1,59.7-0.2,89.5c28,0.1,56,0.2,84,0.3c8.6,0,17.3,0,25.9,0.1
	C356.8,210.6,356.3,180.6,356.2,150.6z M57.7,57.5c0.8,16.8,1.7,33.7,2.5,50.5c0.7,15.2,1,30.3,1,45.5c7.8-0.1,15.5-0.5,23.3-0.8
	c23.3-1.1,46.6-1.9,69.9-2.5c-0.3-20.4-0.8-40.8-1.3-61.2c-0.3-10.5-0.9-20.9-1.5-31.4c-16.1,0-32.1,0-48.2,0
	C88.1,57.5,72.9,57.5,57.7,57.5z M548.9,47.7c-12.2,0.5-24.5,1-36.7,1.5c-18.1,0.8-36.2,1.6-54.3,2.4c1.4,33.2,3.5,66.4,5.2,99.6
	c27.3,0.8,54.6,0.9,81.9-0.6c0.7,0,1.4-0.1,2.1-0.1C548,116.2,548.6,81.9,548.9,47.7z M455.2,51.7c-31.8,1.3-63.6,2.5-95.5,3.4
	c-0.2,22.5-0.5,45-0.7,67.5c-0.1,8.4-0.1,16.8-0.1,25.2l1.7,0c33.2,0.5,66.5,2.3,99.9,3.3C458.6,118,456.6,84.9,455.2,51.7z
	 M645.7,46.7c-10.4-0.4-20.8-0.6-31.2-0.6c-20.9,0.1-41.8,0.6-62.7,1.4c-0.4,34.2-1,68.5-1.8,102.7c28.9-1.8,57.8-4.3,86.8-4.1
	c4,0,8.1,0.1,12.1,0.1c-0.9-21.8-1.7-43.7-2.4-65.5C646.1,69.4,645.9,58.1,645.7,46.7z M245.3,57.1c-30.3,0.3-60.7,0.4-91,0.4
	c0.1,2.3,0.3,4.6,0.4,6.9c0.9,16.4,1.3,32.7,1.6,49.1c0.2,12.2,0.4,24.4,0.6,36.5c6.6-0.2,13.2-0.4,19.8-0.6
	c22.8-0.6,45.6-1.1,68.4-1.5c0-19.4,0.1-38.8,0.1-58.3C245.3,79.1,245.3,67.9,245.3,57.1z M648.6,46.9c0.3,19,0.8,37.9,1.4,56.9
	c0.5,14.2,1.1,28.4,1.6,42.5c25.8,0.4,51.6,1.6,77.4,2.6c3.8,0.1,7.5,0.3,11.3,0.4c1-31.6,2.4-63.2,3.4-94.8
	c-9.4-0.9-18.7-1.8-28.1-2.7C693.3,49.7,671,47.8,648.6,46.9z M356.9,55.2c-16,0.4-32.1,0.8-48.1,1.1c-20.2,0.3-40.5,0.6-60.8,0.8
	c0,18.9,0,39.7-0.1,57.6c0,11.1,0,22.2-0.1,33.3c36.1-0.5,72.2-0.7,108.3-0.2c-0.1-16.7,0-33.4,0.2-50.1
	C356.6,83.5,356.8,69.4,356.9,55.2z"/>
</svg>
